<svg xmlns="http://www.w3.org/2000/svg" viewBox="0 0 512 512">
  <rect width="512" height="512" rx="108" fill="#0f766e"/>
  <circle cx="386" cy="126" r="54" fill="#facc15"/>
  <path d="M72 354c88-118 171-141 249-60 37 38 74 53 119 31v115H72z" fill="#f8fafc"/>
  <path d="M118 326c86-90 157-92 236-14 31 31 59 38 86 22v74H118z" fill="#14b8a6"/>
  <path d="M182 149c52 18 83 59 93 123-36-45-73-72-112-82 34 29 53 66 58 112-29-48-61-84-95-108-3 55-20 100-53 136 14-75 12-135-6-181 38-8 76-8 115 0z" fill="#fff7ed"/>
</svg>
